<svg width="24" height="24" viewBox="0 0 24 24" fill="none" xmlns="http://www.w3.org/2000/svg">
<path d="M8 10.4178L10.0189 12.4835C10.1694 12.6434 10.3514 12.7716 10.5539 12.8604C10.7562 12.9491 10.9748 12.9966 11.1964 13H11.2253C11.4421 13.0013 11.6571 12.9602 11.8577 12.8792C12.0584 12.7983 12.2407 12.679 12.394 12.5283L17 8" stroke="#47FD62" stroke-width="1.4"/>
<path d="M12 1L3.7695 3.7017C3.54557 3.77411 3.35052 3.91481 3.2123 4.10365C3.07407 4.29249 2.99976 4.51978 3 4.75298V12.0184C3 18.1367 10.245 22.1057 12.0529 23C13.8574 22.2817 21 18.9931 21 12.0184V4.75298C21.0003 4.51978 20.926 4.29249 20.7877 4.10365C20.6496 3.91481 20.4545 3.77411 20.2305 3.7017L12 1Z" stroke="#47FD62" stroke-width="1.4"/>
</svg>
