<svg width="1920" height="240" viewBox="0 0 1920 240" fill="none" xmlns="http://www.w3.org/2000/svg">
<g clip-path="url(#clip0_18_93)">
<path d="M1920 242C1920 242 1906 199.5 1860.15 120.305C1814.3 41.1107 1719.64 -0.963577 1651.58 3.16082C1566.52 8.31631 1509.86 28.7954 1457.02 94.5279C1404.17 160.26 1299.77 180.882 1234.04 148.661C1168.31 116.439 1040.71 55.8616 919.555 112.572C798.401 169.283 705.602 177.016 558.671 120.305C461.962 82.9793 359 178 328.562 205.5C298.125 233 277 242 250 236.5C223 231 206.5 218 181 199C155.5 180 95.9999 139.5 40.4999 172C-15.0001 204.5 -3.00013 210 -3.00013 210" stroke="#071F54"/>
</g>
<defs>
<clipPath id="clip0_18_93">
<rect width="1920" height="240" fill="white"/>
</clipPath>
</defs>
</svg>
