<svg width="24" height="24" viewBox="0 0 24 24" fill="none" xmlns="http://www.w3.org/2000/svg">
<path d="M7 3H19C20.1046 3 21 3.89543 21 5V17M5 21H19C19.5523 21 20.0523 20.7761 20.4142 20.4142M5 21C3.89543 21 3 20.1046 3 19V5C3 4.44772 3.22386 3.94772 3.58579 3.58579M5 21L13 13M21 15L16 10L14.5 11.5M1 1L3.58579 3.58579M23 23L20.4142 20.4142M3.58579 3.58579L7.43934 7.43934M7.43934 7.43934C7.16789 7.71079 7 8.08579 7 8.5C7 9.32843 7.67157 10 8.5 10C8.91421 10 9.28921 9.83211 9.56066 9.56066M7.43934 7.43934L9.56066 9.56066M9.56066 9.56066L12 12L13 13M13 13L20.4142 20.4142" stroke="#071F54" stroke-width="1.4" stroke-linecap="round" stroke-linejoin="round"/>
</svg>
