<svg width="147" height="35" viewBox="0 0 147 35" fill="none" xmlns="http://www.w3.org/2000/svg">
<path d="M7.04772 16C6.75972 16 6.53572 15.9253 6.37572 15.776C6.22639 15.616 6.15172 15.392 6.15172 15.104V5.616C6.15172 5.328 6.22639 5.10933 6.37572 4.96C6.53572 4.8 6.75972 4.72 7.04772 4.72H12.8877C13.1117 4.72 13.2824 4.77867 13.3997 4.896C13.5171 5.00267 13.5757 5.16267 13.5757 5.376C13.5757 5.6 13.5171 5.77067 13.3997 5.888C13.2824 6.00533 13.1117 6.064 12.8877 6.064H7.75172V9.6H12.5357C12.7704 9.6 12.9411 9.65867 13.0477 9.776C13.1651 9.89333 13.2237 10.0587 13.2237 10.272C13.2237 10.496 13.1651 10.6667 13.0477 10.784C12.9411 10.8907 12.7704 10.944 12.5357 10.944H7.75172V14.656H12.8877C13.1117 14.656 13.2824 14.7147 13.3997 14.832C13.5171 14.9493 13.5757 15.1147 13.5757 15.328C13.5757 15.552 13.5171 15.7227 13.3997 15.84C13.2824 15.9467 13.1117 16 12.8877 16H7.04772ZM16.1976 16.112C15.9416 16.112 15.7443 16.0427 15.6056 15.904C15.4669 15.7547 15.3976 15.552 15.3976 15.296V8.896C15.3976 8.62933 15.4669 8.42667 15.6056 8.288C15.7443 8.14933 15.9363 8.08 16.1816 8.08C16.4376 8.08 16.6296 8.14933 16.7576 8.288C16.8963 8.42667 16.9656 8.62933 16.9656 8.896V10.144L16.7896 9.856C17.0243 9.25867 17.3923 8.81067 17.8936 8.512C18.3949 8.20267 18.9709 8.048 19.6216 8.048C20.2403 8.048 20.7523 8.16533 21.1576 8.4C21.5736 8.624 21.8829 8.97067 22.0856 9.44C22.2883 9.89867 22.3896 10.48 22.3896 11.184V15.296C22.3896 15.552 22.3203 15.7547 22.1816 15.904C22.0429 16.0427 21.8456 16.112 21.5896 16.112C21.3229 16.112 21.1203 16.0427 20.9816 15.904C20.8429 15.7547 20.7736 15.552 20.7736 15.296V11.28C20.7736 10.608 20.6403 10.1173 20.3736 9.808C20.1176 9.49867 19.7123 9.344 19.1576 9.344C18.5069 9.344 17.9843 9.54667 17.5896 9.952C17.2056 10.3573 17.0136 10.9013 17.0136 11.584V15.296C17.0136 15.84 16.7416 16.112 16.1976 16.112ZM28.1523 19.024C27.5763 19.024 27.0163 18.9653 26.4723 18.848C25.939 18.7307 25.4537 18.5387 25.0163 18.272C24.8563 18.1867 24.7497 18.08 24.6963 17.952C24.643 17.8347 24.627 17.712 24.6483 17.584C24.6803 17.456 24.739 17.344 24.8243 17.248C24.9097 17.152 25.011 17.088 25.1283 17.056C25.2563 17.024 25.3897 17.0453 25.5283 17.12C25.9977 17.376 26.4403 17.5467 26.8563 17.632C27.283 17.728 27.6777 17.776 28.0403 17.776C28.787 17.776 29.347 17.584 29.7203 17.2C30.0937 16.8267 30.2803 16.272 30.2803 15.536V13.904H30.4243C30.2643 14.4907 29.9283 14.9547 29.4163 15.296C28.9043 15.6373 28.3123 15.808 27.6403 15.808C26.9363 15.808 26.323 15.648 25.8003 15.328C25.2777 14.9973 24.8723 14.544 24.5843 13.968C24.2963 13.3813 24.1523 12.6987 24.1523 11.92C24.1523 11.3333 24.2323 10.8053 24.3923 10.336C24.563 9.86667 24.7977 9.46133 25.0963 9.12C25.4057 8.77867 25.7737 8.51733 26.2003 8.336C26.6377 8.144 27.1177 8.048 27.6403 8.048C28.323 8.048 28.915 8.21867 29.4163 8.56C29.9283 8.90133 30.259 9.36533 30.4083 9.952L30.2483 10.224V8.896C30.2483 8.62933 30.3177 8.42667 30.4563 8.288C30.6057 8.14933 30.803 8.08 31.0483 8.08C31.3043 8.08 31.5017 8.14933 31.6403 8.288C31.779 8.42667 31.8483 8.62933 31.8483 8.896V15.344C31.8483 16.56 31.5337 17.4773 30.9043 18.096C30.275 18.7147 29.3577 19.024 28.1523 19.024ZM28.0243 14.544C28.4937 14.544 28.8937 14.4373 29.2243 14.224C29.555 14.0107 29.811 13.7067 29.9923 13.312C30.1737 12.9173 30.2643 12.4533 30.2643 11.92C30.2643 11.12 30.0617 10.4853 29.6563 10.016C29.2617 9.54667 28.7177 9.312 28.0243 9.312C27.5657 9.312 27.171 9.41867 26.8403 9.632C26.5097 9.84533 26.2483 10.1493 26.0563 10.544C25.875 10.928 25.7843 11.3867 25.7843 11.92C25.7843 12.7307 25.987 13.3707 26.3923 13.84C26.7977 14.3093 27.3417 14.544 28.0243 14.544ZM36.6283 16.144C35.7963 16.144 35.167 15.904 34.7403 15.424C34.3243 14.9333 34.1163 14.2293 34.1163 13.312V5.424C34.1163 5.15733 34.1857 4.95467 34.3243 4.816C34.463 4.67733 34.6603 4.608 34.9163 4.608C35.1723 4.608 35.3697 4.67733 35.5083 4.816C35.6577 4.95467 35.7323 5.15733 35.7323 5.424V13.216C35.7323 13.7493 35.839 14.1493 36.0523 14.416C36.2763 14.672 36.5963 14.8 37.0123 14.8C37.1083 14.8 37.1937 14.8 37.2683 14.8C37.343 14.7893 37.4177 14.7787 37.4923 14.768C37.6203 14.7573 37.711 14.7947 37.7643 14.88C37.8177 14.9547 37.8443 15.1147 37.8443 15.36C37.8443 15.584 37.7963 15.76 37.7003 15.888C37.6043 16.0053 37.4497 16.08 37.2363 16.112C37.1403 16.1227 37.039 16.128 36.9323 16.128C36.8257 16.1387 36.7243 16.144 36.6283 16.144ZM39.807 16.096C39.551 16.096 39.3536 16.0213 39.215 15.872C39.0763 15.712 39.007 15.4933 39.007 15.216V8.976C39.007 8.69867 39.0763 8.48533 39.215 8.336C39.3536 8.18667 39.551 8.112 39.807 8.112C40.063 8.112 40.2603 8.18667 40.399 8.336C40.5483 8.48533 40.623 8.69867 40.623 8.976V15.216C40.623 15.4933 40.5536 15.712 40.415 15.872C40.2763 16.0213 40.0736 16.096 39.807 16.096ZM39.807 6.448C39.487 6.448 39.2363 6.368 39.055 6.208C38.8843 6.048 38.799 5.824 38.799 5.536C38.799 5.23733 38.8843 5.01333 39.055 4.864C39.2363 4.704 39.487 4.624 39.807 4.624C40.127 4.624 40.3723 4.704 40.543 4.864C40.7243 5.01333 40.815 5.23733 40.815 5.536C40.815 5.824 40.7243 6.048 40.543 6.208C40.3723 6.368 40.127 6.448 39.807 6.448ZM45.6336 16.144C45.1643 16.144 44.6789 16.0907 44.1776 15.984C43.6869 15.8773 43.2336 15.696 42.8176 15.44C42.6789 15.344 42.5829 15.2373 42.5296 15.12C42.4763 15.0027 42.4549 14.8853 42.4656 14.768C42.4869 14.64 42.5349 14.5333 42.6096 14.448C42.6949 14.352 42.7963 14.2933 42.9136 14.272C43.0416 14.2507 43.1749 14.2773 43.3136 14.352C43.7296 14.5867 44.1296 14.752 44.5136 14.848C44.8976 14.9333 45.2763 14.976 45.6496 14.976C46.2149 14.976 46.6416 14.8747 46.9296 14.672C47.2176 14.4693 47.3616 14.1973 47.3616 13.856C47.3616 13.5787 47.2656 13.3653 47.0736 13.216C46.8816 13.056 46.5936 12.9333 46.2096 12.848L44.6896 12.544C44.0283 12.4053 43.5269 12.16 43.1856 11.808C42.8443 11.456 42.6736 11.008 42.6736 10.464C42.6736 9.97333 42.8069 9.54667 43.0736 9.184C43.3403 8.82133 43.7136 8.544 44.1936 8.352C44.6736 8.14933 45.2283 8.048 45.8576 8.048C46.3269 8.048 46.7696 8.10667 47.1856 8.224C47.6016 8.34133 47.9856 8.51733 48.3376 8.752C48.4763 8.82667 48.5669 8.928 48.6096 9.056C48.6523 9.17333 48.6576 9.29067 48.6256 9.408C48.6043 9.52533 48.5509 9.632 48.4656 9.728C48.3803 9.81333 48.2736 9.86667 48.1456 9.888C48.0283 9.89867 47.8949 9.86667 47.7456 9.792C47.4256 9.58933 47.1056 9.44533 46.7856 9.36C46.4763 9.27467 46.1669 9.232 45.8576 9.232C45.2923 9.232 44.8656 9.33867 44.5776 9.552C44.3003 9.75467 44.1616 10.032 44.1616 10.384C44.1616 10.6507 44.2469 10.8693 44.4176 11.04C44.5883 11.2107 44.8549 11.3333 45.2176 11.408L46.7376 11.712C47.4309 11.8507 47.9536 12.0853 48.3056 12.416C48.6683 12.7467 48.8496 13.1947 48.8496 13.76C48.8496 14.496 48.5563 15.0773 47.9696 15.504C47.3829 15.9307 46.6043 16.144 45.6336 16.144ZM51.4476 16.112C51.1916 16.112 50.9943 16.0427 50.8556 15.904C50.7169 15.7547 50.6476 15.552 50.6476 15.296V5.424C50.6476 5.15733 50.7169 4.95467 50.8556 4.816C50.9943 4.67733 51.1916 4.608 51.4476 4.608C51.7036 4.608 51.9009 4.67733 52.0396 4.816C52.1889 4.95467 52.2636 5.15733 52.2636 5.424V9.856H52.0396C52.2743 9.25867 52.6423 8.81067 53.1436 8.512C53.6449 8.20267 54.2209 8.048 54.8716 8.048C55.4903 8.048 56.0023 8.16533 56.4076 8.4C56.8236 8.624 57.1329 8.97067 57.3356 9.44C57.5383 9.89867 57.6396 10.48 57.6396 11.184V15.296C57.6396 15.552 57.5703 15.7547 57.4316 15.904C57.2929 16.0427 57.0956 16.112 56.8396 16.112C56.5729 16.112 56.3703 16.0427 56.2316 15.904C56.0929 15.7547 56.0236 15.552 56.0236 15.296V11.28C56.0236 10.608 55.8903 10.1173 55.6236 9.808C55.3676 9.49867 54.9623 9.344 54.4076 9.344C53.7569 9.344 53.2343 9.54667 52.8396 9.952C52.4556 10.3573 52.2636 10.9013 52.2636 11.584V15.296C52.2636 15.84 51.9916 16.112 51.4476 16.112ZM65.0931 16.112C64.8264 16.112 64.6184 16.0373 64.4691 15.888C64.3304 15.7387 64.2611 15.5307 64.2611 15.264V5.568C64.2611 5.29067 64.3358 5.08267 64.4851 4.944C64.6344 4.79467 64.8424 4.72 65.1091 4.72H68.9331C70.1491 4.72 71.0878 5.024 71.7491 5.632C72.4104 6.22933 72.7411 7.072 72.7411 8.16C72.7411 9.25867 72.4104 10.112 71.7491 10.72C71.0878 11.3173 70.1491 11.616 68.9331 11.616H65.9251V15.264C65.9251 15.5307 65.8558 15.7387 65.7171 15.888C65.5784 16.0373 65.3704 16.112 65.0931 16.112ZM65.9251 10.288H68.6931C69.4931 10.288 70.0958 10.112 70.5011 9.76C70.9171 9.39733 71.1251 8.864 71.1251 8.16C71.1251 7.46667 70.9171 6.944 70.5011 6.592C70.0958 6.22933 69.4931 6.048 68.6931 6.048H65.9251V10.288ZM77.0253 16.144C76.396 16.144 75.868 16.0267 75.4413 15.792C75.0253 15.5573 74.7107 15.2107 74.4973 14.752C74.2947 14.2827 74.1933 13.696 74.1933 12.992V8.896C74.1933 8.61867 74.2627 8.416 74.4013 8.288C74.54 8.14933 74.7373 8.08 74.9933 8.08C75.2493 8.08 75.4467 8.14933 75.5853 8.288C75.7347 8.416 75.8093 8.61867 75.8093 8.896V13.008C75.8093 13.6373 75.9373 14.1013 76.1933 14.4C76.4493 14.6987 76.8547 14.848 77.4093 14.848C78.0173 14.848 78.508 14.6453 78.8813 14.24C79.2653 13.824 79.4573 13.28 79.4573 12.608V8.896C79.4573 8.61867 79.5267 8.416 79.6653 8.288C79.804 8.14933 80.0067 8.08 80.2733 8.08C80.5293 8.08 80.7267 8.14933 80.8653 8.288C81.004 8.416 81.0733 8.61867 81.0733 8.896V15.296C81.0733 15.84 80.812 16.112 80.2893 16.112C80.044 16.112 79.852 16.0427 79.7133 15.904C79.5747 15.7547 79.5053 15.552 79.5053 15.296V13.936L79.7133 14.288C79.5 14.8853 79.1587 15.344 78.6893 15.664C78.22 15.984 77.6653 16.144 77.0253 16.144ZM83.6547 16C83.4841 16 83.3454 15.9627 83.2387 15.888C83.1321 15.8027 83.0574 15.696 83.0147 15.568C82.9827 15.4293 82.9827 15.2853 83.0147 15.136C83.0574 14.976 83.1427 14.8267 83.2707 14.688L87.6227 9.04V9.44H83.5587C83.3561 9.44 83.2014 9.38667 83.0947 9.28C82.9881 9.16267 82.9347 9.008 82.9347 8.816C82.9347 8.61333 82.9881 8.45867 83.0947 8.352C83.2014 8.24533 83.3561 8.192 83.5587 8.192H88.3907C88.5934 8.192 88.7534 8.23467 88.8707 8.32C88.9987 8.40533 89.0787 8.512 89.1107 8.64C89.1534 8.768 89.1587 8.90667 89.1267 9.056C89.0947 9.20533 89.0147 9.34933 88.8867 9.488L84.4707 15.2V14.768H88.7427C89.1694 14.768 89.3827 14.9707 89.3827 15.376C89.3827 15.568 89.3241 15.7227 89.2067 15.84C89.1001 15.9467 88.9454 16 88.7427 16H83.6547ZM91.1391 16C90.9684 16 90.8298 15.9627 90.7231 15.888C90.6164 15.8027 90.5418 15.696 90.4991 15.568C90.4671 15.4293 90.4671 15.2853 90.4991 15.136C90.5418 14.976 90.6271 14.8267 90.7551 14.688L95.1071 9.04V9.44H91.0431C90.8404 9.44 90.6858 9.38667 90.5791 9.28C90.4724 9.16267 90.4191 9.008 90.4191 8.816C90.4191 8.61333 90.4724 8.45867 90.5791 8.352C90.6858 8.24533 90.8404 8.192 91.0431 8.192H95.8751C96.0778 8.192 96.2378 8.23467 96.3551 8.32C96.4831 8.40533 96.5631 8.512 96.5951 8.64C96.6378 8.768 96.6431 8.90667 96.6111 9.056C96.5791 9.20533 96.4991 9.34933 96.3711 9.488L91.9551 15.2V14.768H96.2271C96.6538 14.768 96.8671 14.9707 96.8671 15.376C96.8671 15.568 96.8084 15.7227 96.6911 15.84C96.5844 15.9467 96.4298 16 96.2271 16H91.1391ZM100.831 16.144C99.9995 16.144 99.3701 15.904 98.9435 15.424C98.5275 14.9333 98.3195 14.2293 98.3195 13.312V5.424C98.3195 5.15733 98.3888 4.95467 98.5275 4.816C98.6661 4.67733 98.8635 4.608 99.1195 4.608C99.3755 4.608 99.5728 4.67733 99.7115 4.816C99.8608 4.95467 99.9355 5.15733 99.9355 5.424V13.216C99.9355 13.7493 100.042 14.1493 100.255 14.416C100.479 14.672 100.799 14.8 101.215 14.8C101.311 14.8 101.397 14.8 101.471 14.8C101.546 14.7893 101.621 14.7787 101.695 14.768C101.823 14.7573 101.914 14.7947 101.967 14.88C102.021 14.9547 102.047 15.1147 102.047 15.36C102.047 15.584 101.999 15.76 101.903 15.888C101.807 16.0053 101.653 16.08 101.439 16.112C101.343 16.1227 101.242 16.128 101.135 16.128C101.029 16.1387 100.927 16.144 100.831 16.144ZM106.796 16.144C105.943 16.144 105.207 15.984 104.588 15.664C103.98 15.3333 103.505 14.8693 103.164 14.272C102.833 13.664 102.668 12.944 102.668 12.112C102.668 11.3013 102.833 10.592 103.164 9.984C103.495 9.376 103.948 8.90133 104.524 8.56C105.1 8.21867 105.756 8.048 106.492 8.048C107.036 8.048 107.521 8.13867 107.948 8.32C108.375 8.49067 108.737 8.74667 109.036 9.088C109.345 9.41867 109.575 9.824 109.724 10.304C109.884 10.784 109.964 11.3227 109.964 11.92C109.964 12.1013 109.911 12.24 109.804 12.336C109.697 12.4213 109.537 12.464 109.324 12.464H103.948V11.472H108.876L108.604 11.696C108.604 11.1627 108.524 10.7093 108.364 10.336C108.215 9.96267 107.985 9.68 107.676 9.488C107.377 9.28533 107.004 9.184 106.556 9.184C106.055 9.184 105.628 9.30133 105.276 9.536C104.935 9.77067 104.673 10.096 104.492 10.512C104.311 10.928 104.22 11.4133 104.22 11.968V12.064C104.22 13.0027 104.439 13.712 104.876 14.192C105.324 14.6613 105.969 14.896 106.812 14.896C107.132 14.896 107.468 14.8533 107.82 14.768C108.183 14.6827 108.524 14.5387 108.844 14.336C109.025 14.2293 109.185 14.1813 109.324 14.192C109.473 14.2027 109.591 14.2507 109.676 14.336C109.772 14.4213 109.831 14.528 109.852 14.656C109.873 14.784 109.852 14.9173 109.788 15.056C109.724 15.184 109.612 15.3013 109.452 15.408C109.089 15.6533 108.668 15.84 108.188 15.968C107.708 16.0853 107.244 16.144 106.796 16.144ZM116.056 16.112C115.843 16.112 115.672 16.064 115.544 15.968C115.416 15.872 115.342 15.744 115.32 15.584C115.299 15.424 115.331 15.2427 115.416 15.04L119.752 5.312C119.859 5.056 119.992 4.87467 120.152 4.768C120.323 4.66133 120.51 4.608 120.712 4.608C120.904 4.608 121.08 4.66133 121.24 4.768C121.411 4.87467 121.55 5.056 121.656 5.312L125.992 15.04C126.088 15.2427 126.126 15.4293 126.104 15.6C126.083 15.76 126.014 15.888 125.896 15.984C125.779 16.0693 125.614 16.112 125.4 16.112C125.166 16.112 124.979 16.0533 124.84 15.936C124.702 15.8187 124.579 15.6373 124.472 15.392L123.352 12.8L124.104 13.248H117.288L118.024 12.8L116.92 15.392C116.814 15.648 116.696 15.8347 116.568 15.952C116.44 16.0587 116.27 16.112 116.056 16.112ZM120.68 6.56L118.264 12.288L117.864 11.904H123.512L123.144 12.288L120.712 6.56H120.68ZM128.526 18.992C128.27 18.992 128.072 18.9227 127.934 18.784C127.795 18.6453 127.726 18.4427 127.726 18.176V8.896C127.726 8.62933 127.795 8.42667 127.934 8.288C128.072 8.14933 128.264 8.08 128.51 8.08C128.766 8.08 128.963 8.14933 129.102 8.288C129.24 8.42667 129.31 8.62933 129.31 8.896V10.288L129.134 9.952C129.304 9.376 129.64 8.91733 130.142 8.576C130.643 8.224 131.235 8.048 131.918 8.048C132.611 8.048 133.214 8.21333 133.726 8.544C134.248 8.87467 134.648 9.33867 134.926 9.936C135.214 10.5333 135.358 11.2533 135.358 12.096C135.358 12.9173 135.214 13.6373 134.926 14.256C134.648 14.864 134.254 15.3333 133.742 15.664C133.23 15.984 132.622 16.144 131.918 16.144C131.246 16.144 130.659 15.9733 130.158 15.632C129.656 15.2907 129.32 14.8373 129.15 14.272H129.342V18.176C129.342 18.4427 129.267 18.6453 129.118 18.784C128.979 18.9227 128.782 18.992 128.526 18.992ZM131.518 14.896C131.966 14.896 132.355 14.7893 132.686 14.576C133.016 14.3627 133.272 14.048 133.454 13.632C133.635 13.216 133.726 12.704 133.726 12.096C133.726 11.1787 133.523 10.4853 133.118 10.016C132.723 9.54667 132.19 9.312 131.518 9.312C131.08 9.312 130.691 9.41867 130.35 9.632C130.019 9.83467 129.763 10.144 129.582 10.56C129.4 10.976 129.31 11.488 129.31 12.096C129.31 13.0027 129.512 13.696 129.918 14.176C130.323 14.656 130.856 14.896 131.518 14.896ZM137.979 18.992C137.723 18.992 137.526 18.9227 137.387 18.784C137.248 18.6453 137.179 18.4427 137.179 18.176V8.896C137.179 8.62933 137.248 8.42667 137.387 8.288C137.526 8.14933 137.718 8.08 137.963 8.08C138.219 8.08 138.416 8.14933 138.555 8.288C138.694 8.42667 138.763 8.62933 138.763 8.896V10.288L138.587 9.952C138.758 9.376 139.094 8.91733 139.595 8.576C140.096 8.224 140.688 8.048 141.371 8.048C142.064 8.048 142.667 8.21333 143.179 8.544C143.702 8.87467 144.102 9.33867 144.379 9.936C144.667 10.5333 144.811 11.2533 144.811 12.096C144.811 12.9173 144.667 13.6373 144.379 14.256C144.102 14.864 143.707 15.3333 143.195 15.664C142.683 15.984 142.075 16.144 141.371 16.144C140.699 16.144 140.112 15.9733 139.611 15.632C139.11 15.2907 138.774 14.8373 138.603 14.272H138.795V18.176C138.795 18.4427 138.72 18.6453 138.571 18.784C138.432 18.9227 138.235 18.992 137.979 18.992ZM140.971 14.896C141.419 14.896 141.808 14.7893 142.139 14.576C142.47 14.3627 142.726 14.048 142.907 13.632C143.088 13.216 143.179 12.704 143.179 12.096C143.179 11.1787 142.976 10.4853 142.571 10.016C142.176 9.54667 141.643 9.312 140.971 9.312C140.534 9.312 140.144 9.41867 139.803 9.632C139.472 9.83467 139.216 10.144 139.035 10.56C138.854 10.976 138.763 11.488 138.763 12.096C138.763 13.0027 138.966 13.696 139.371 14.176C139.776 14.656 140.31 14.896 140.971 14.896Z" fill="#071F54"/>
<path d="M1 23.7815C3.65369 26.2683 7.68442 26.3406 13.1094 27.6412C18.5345 28.9419 19.9714 29.2106 22.6587 29.5842C27.3181 30.2319 31.7194 30.9051 36.4521 30.8848C46.9477 30.8398 58.041 30.0939 68.183 28.3316C69.6257 28.0809 70.921 27.9388 72.3408 27.6412C73.0696 27.4885 74.3124 27.1752 74.7815 26.7043C75.7915 25.6903 71.5423 26.1499 70.837 26.2683C69.0889 26.5615 66.6226 27.5632 65.1716 28.3316C63.88 29.0156 63.274 29.9302 63.7064 30.8848C65.4075 34.6403 75.4129 33.9213 81.6917 34.3064C87.9705 34.6914 97.654 33.7895 102.19 33.2795C107.92 32.6354 111.978 32.1854 119.18 30.8848C126.382 29.5842 129.755 28.9763 134.877 27.6412C137.519 26.9526 143.405 25.0458 145.588 23.7815" stroke="#071F54" stroke-linecap="round"/>
</svg>
